<?xml version="1.0" encoding="utf-8"?>
<!-- Generator: Adobe Illustrator 19.0.0, SVG Export Plug-In . SVG Version: 6.00 Build 0)  -->
<svg version="1.1" id="Layer_1" xmlns="http://www.w3.org/2000/svg" xmlns:xlink="http://www.w3.org/1999/xlink" x="0px" y="0px"
	 viewBox="-103 105 512 512" style="enable-background:new -103 105 512 512;" xml:space="preserve">
<style type="text/css">
	.st0{fill:#3E5561;}
</style>
<g id="Page-1">
	<g id="_x30_02---Virus">
		<path id="Shape" class="st0" d="M128.7,352.8c22.5,0,40.8-18.2,40.8-40.8s-18.2-40.8-40.8-40.8S88,289.6,88,312.1
			C88.1,334.6,106.2,352.7,128.7,352.8z M128.7,287.6c13.5,0,24.4,11,24.4,24.4s-11,24.4-24.4,24.4s-24.4-11-24.4-24.4
			S115.3,287.6,128.7,287.6z"/>
		<path id="Shape_1_" class="st0" d="M218.4,360.9c13.5,0,24.4-11,24.4-24.4c0-13.5-11-24.4-24.4-24.4c-13.5,0-24.4,11-24.4,24.4
			C193.9,350,204.8,360.9,218.4,360.9z M218.4,328.4c4.5,0,8.1,3.6,8.1,8.1c0,4.5-3.6,8.1-8.1,8.1c-4.5,0-8.1-3.6-8.1-8.1
			C210.2,332,213.9,328.4,218.4,328.4z"/>
		<path id="Shape_2_" class="st0" d="M63.5,401.7c13.5,0,24.4-11,24.4-24.4c0-13.5-11-24.4-24.4-24.4s-24.4,11-24.4,24.4
			C39.1,390.7,50.1,401.7,63.5,401.7z M63.5,369.1c4.5,0,8.1,3.6,8.1,8.1s-3.6,8.1-8.1,8.1s-8.1-3.6-8.1-8.1S59.1,369.1,63.5,369.1z
			"/>
		<path id="Shape_3_" class="st0" d="M112.4,417.9c0,27,21.9,48.9,48.9,48.9s48.9-21.9,48.9-48.9c0-27-21.9-48.9-48.9-48.9
			C134.4,369.2,112.5,391,112.4,417.9z M193.9,417.9c0,18-14.6,32.5-32.5,32.5s-32.5-14.6-32.5-32.5c0-18,14.6-32.5,32.5-32.5
			S193.9,400,193.9,417.9z"/>
		<path id="Shape_4_" class="st0" d="M-58.6,393.5c6,0,11.9-1.7,17.1-4.9c2.4-1.7,5.3-2.7,8.3-2.8c10.4,0.6,26,1.7,42.8,4.1
			c1.1,5.9,2.8,11.8,4.7,17.6c-14,11-27.1,19.9-35.5,25.3c-2.2,1.2-4.7,1.7-7.1,1.4c-8.5-0.5-16.8,2.4-23.2,7.9
			c-10.3,8.9-14,23.2-9.3,36c3.3,9,10.5,16,19.5,19.3c9,3.2,19,2.4,27.3-2.4c5.3-3.1,9.6-7.4,12.5-12.9c1.2-2.7,3.2-4.9,5.7-6.4
			c8-4.1,28.1-12.9,39.3-17.7c4,4.5,8.2,8.7,12.8,12.6c-7,17.3-14.3,32.1-18.2,39.8c-1.2,2.1-3.1,3.7-5.3,4.7
			c-9.8,5-16.4,14.5-17.7,25.5c-1.2,10.9,3.1,21.8,11.5,28.7c5.9,4.9,13.3,7.4,20.8,7.5c8.8,0,17.2-3.6,23.4-9.9
			c6.1-6.3,9.4-14.8,9.2-23.7c-0.3-3,0.3-5.9,1.8-8.5c5.7-8.8,14.5-21.7,25-35.1c5.6,1.9,11.5,3.5,17.4,4.8
			c1.1,10,3.8,34.2,4.2,43.5c0,2.4-0.8,4.8-2.2,6.7c-6,9.2-7.1,20.8-2.7,30.9c4.4,10.1,13.6,17.3,24.4,19.2c1.8,0.3,3.6,0.4,5.4,0.4
			c8.7,0,17-3.4,23.1-9.5c6.1-6.1,9.5-14.4,9.5-23.1c0-6.1-1.7-12.1-5-17.4c-1.6-2.3-2.6-5.2-2.6-8c0.6-10.4,1.7-26,4.1-42.8
			c5.9-1.2,11.8-2.9,17.6-4.8c11.5,14.7,20.6,28.4,25.3,35.7c1.2,2.1,1.7,4.6,1.4,7c-0.5,9,2.8,17.8,9,24.2s14.8,10.2,23.8,10.2
			c3.8,0,7.6-0.7,11.2-2c9-3.3,16-10.5,19.4-19.5c3.2-9.1,2.4-19-2.5-27.4c-3-5.2-7.4-9.5-12.8-12.4c-2.7-1.2-5-3.2-6.5-5.8
			c-4.8-9.4-11.5-23.4-17.9-39.1c4.5-3.9,8.8-8.2,12.8-12.7c19.6,8.5,34,15.1,39.8,18.1c2.1,1.2,3.8,3.1,4.8,5.3
			c5,9.7,14.4,16.3,25.2,17.7c10.8,1.3,21.6-2.9,28.7-11.1c6.3-7.3,9.1-17.2,7.4-26.7s-7.4-17.9-15.9-22.7
			c-5.3-3.1-11.5-4.6-17.7-4.3c-2.8,0.3-5.6-0.4-8-1.7c-12.5-8.1-24.2-16.4-34.9-25c1.9-5.7,3.4-11.5,4.6-17.6
			c18.5-2.6,34.9-3.6,43.5-4.1c2.4,0,4.8,0.9,6.7,2.3c11.6,7.6,26.8,7.1,37.8-1.5c11-8.5,15.4-23.1,10.9-36.3
			c-4.5-13.2-16.9-22-30.7-22c-6,0-11.9,1.7-17.1,4.9c-2.4,1.7-5.3,2.7-8.3,2.8c-10.4-0.6-26-1.7-42.8-4.1
			c-1.1-5.9-2.8-11.8-4.7-17.6c14-11,27.1-19.9,35.5-25.3c2.2-1.2,4.6-1.7,7.1-1.4c8.5,0.5,16.8-2.4,23.2-7.9
			c10.3-8.9,14-23.2,9.3-36c-3.3-9-10.5-16-19.5-19.3c-9-3.2-19-2.4-27.3,2.4c-5.3,3.1-9.6,7.4-12.5,12.9c-1.2,2.7-3.2,4.9-5.7,6.4
			c-8,4.1-28.1,12.9-39.3,17.7c-4-4.5-8.2-8.6-12.7-12.5c7-17.3,14.3-32.1,18.2-39.8c1.2-2.1,3.1-3.7,5.3-4.7
			c12.4-6.3,19.5-19.8,17.6-33.5s-12.3-24.8-26-27.5c-13.6-2.7-27.5,3.6-34.5,15.7c-3.1,5.2-4.6,11.2-4.4,17.2
			c0.3,3-0.3,5.9-1.8,8.5c-5.7,8.8-14.5,21.7-25,35c-5.6-1.9-11.5-3.5-17.4-4.8c-1.1-10-3.8-34.4-4.2-43.6c0-2.4,0.8-4.7,2.2-6.6
			c7.7-11.6,7.2-26.8-1.3-37.9c-8.5-11.1-23.1-15.5-36.3-11c-13.2,4.5-22,16.9-22,30.8c0,6.1,1.7,12.1,5,17.3c1.7,2.4,2.6,5.2,2.6,8
			c-0.5,8.9-2.9,30.6-4.4,42.9c-5.8,1.2-11.6,2.8-17.3,4.8c-11.5-14.7-20.6-28.4-25.3-35.7c-1.1-2.1-1.6-4.6-1.3-7
			c0.8-13.9-7.3-26.7-20.2-32s-27.7-1.7-36.8,8.8s-10.6,25.6-3.7,37.7c3,5.2,7.4,9.5,12.8,12.4c2.7,1.2,5,3.2,6.5,5.8
			c4.8,9.4,11.5,23.4,17.9,39.1c-4.5,3.9-8.8,8.2-12.8,12.6c-9.2-4-31.5-13.7-39.8-18.1c-2.1-1.2-3.8-3.1-4.8-5.3
			c-6.3-12.4-19.8-19.5-33.6-17.6s-24.9,12.3-27.6,26.1c-2.7,13.6,3.6,27.6,15.7,34.6c5.3,3.1,11.5,4.6,17.7,4.3
			c2.8-0.3,5.6,0.4,8,1.7c12,7.7,23.8,16,34.9,25c-1.9,5.7-3.4,11.5-4.6,17.6c-18.4,2.6-34.8,3.6-43.5,4.1c-2.4,0-4.8-0.9-6.7-2.3
			c-11.6-7.6-26.8-7.1-37.8,1.5s-15.4,23.1-10.9,36.3C-84.9,384.6-72.5,393.5-58.6,393.5L-58.6,393.5z M67.9,526
			c-3.2,5.3-4.9,11.6-4.4,17.9c0.1,3.1-0.7,6-2.2,8.6c-3.5,6-10.4,9.2-17.3,7.7c-6.9-1.4-12-6.9-13-13.7c-1-6.9,2.6-13.6,8.8-16.7
			c5.3-2.5,9.7-6.6,12.5-11.8c4.6-8.8,10.8-21.7,17.1-36.7c6.8,4.7,13.8,8.8,21.3,12.3C81.3,506,73.4,517.8,67.9,526z M253.5,517.2
			c3.1,5.5,7.6,10,13.4,12.8c2.7,1.4,4.9,3.5,6.3,6.2c3.4,6,2.8,13.6-1.8,18.8c-4.6,5.2-11.9,7-18.4,4.4c-6.5-2.7-10.5-9.1-10.1-16
			c0.5-5.8-0.9-11.7-4-16.7c-4.4-6.9-12.7-19.3-23.2-33.1c7.4-3.5,14.5-7.6,21.3-12.4C242.9,495.7,249,508.5,253.5,517.2z
			 M338.7,352.3c6.3,0.2,12.5-1.6,17.8-5.2c6.9-4,15.7-2.7,21,3.3c5.3,6.2,5.3,15.4-0.1,21.5s-14.5,7.3-21.3,2.7
			c-4.9-3.3-10.6-5.1-16.4-4.9c-8.1,0.4-23,1.3-40.2,3.5c0.3-4.1,0.5-8.1,0.5-12.3c0-4.1-0.2-8.2-0.5-12.3
			C314.8,350.6,328.9,351.7,338.7,352.3L338.7,352.3z M238.4,195.9c3.2-5.3,4.9-11.6,4.4-17.9c-0.1-3.1,0.7-6,2.2-8.6
			c3.5-6,10.4-9.2,17.3-7.7c6.9,1.4,12,6.9,13,13.7s-2.6,13.6-8.8,16.7c-5.3,2.5-9.7,6.6-12.5,11.8c-4.6,8.8-10.8,21.7-17.1,36.7
			c-6.8-4.7-13.8-8.8-21.3-12.3C225,215.9,233,204.1,238.4,195.9L238.4,195.9z M52.9,204.7c-3.1-5.5-7.6-10-13.4-12.8
			c-2.7-1.4-4.9-3.5-6.3-6.2c-3.4-6-2.8-13.6,1.8-18.9c4.6-5.2,12-7,18.4-4.4c6.5,2.7,10.5,9.1,10.1,16c-0.5,5.8,0.9,11.7,4,16.7
			c5.2,8.3,13.3,20.1,23.2,33.1c-7.4,3.5-14.5,7.6-21.3,12.3C63.5,226.2,57.3,213.4,52.9,204.7L52.9,204.7z M-11.9,275.7
			c-5.2-3.2-11.5-4.8-17.6-4.4c-3.1,0.2-6.1-0.6-8.8-2.2c-6-3.5-9.1-10.4-7.7-17.2c1.3-6.8,6.9-12,13.7-13c6.9-1,13.6,2.6,16.7,8.7
			c2.5,5.3,6.6,9.7,11.8,12.5c8.4,4.4,29.2,13.6,40.9,18.5c6.5,2.8,14,1,18.7-4.3c18.7-21.1,43.7-35.6,71.3-41.2
			c7-1.3,12.3-7.1,13.1-14.1c1.4-12.4,3.8-34.5,4.3-43.8c0.2-6.3-1.6-12.4-5.2-17.6c-1.6-2.6-2.5-5.5-2.5-8.6
			c0-7,4.5-13.2,11.1-15.4c6.6-2.2,13.8,0,18.1,5.5c4.2,5.5,4.5,13.2,0.7,18.9c-3.3,4.8-5.1,10.5-4.9,16.3
			c0.5,9.4,2.9,32.1,4.3,44.7c0.9,7.1,6.1,12.8,13.1,14.1c27.6,5.6,52.6,20.1,71.3,41.2c4.7,5.3,12.2,7.1,18.7,4.3
			c11.4-5,31.8-13.9,40.2-18.2c5.4-3,9.8-7.6,12.6-13.2c1.4-2.7,3.6-5,6.3-6.4c7.3-4.2,16.5-2.3,21.4,4.6s3.8,16.2-2.5,21.8
			c-3.2,2.8-7.4,4.3-11.7,4.1c-5.9-0.5-11.7,0.9-16.8,4c-8.8,5.6-22.2,14.7-36.7,26.2c-5.4,4.3-7.5,11.5-5.2,18.1
			c9,26.8,9,55.9,0,82.8c-2.2,6.6-0.1,13.7,5.2,18.1c11.2,8.8,23.4,17.5,36.3,25.8c5.2,3.2,11.5,4.8,17.6,4.4
			c3.1-0.2,6.1,0.6,8.8,2.2c6,3.5,9.1,10.4,7.7,17.2c-1.3,6.8-6.9,12-13.7,13c-6.9,1-13.6-2.6-16.7-8.7c-2.5-5.3-6.6-9.7-11.8-12.5
			c-8.3-4.3-29.1-13.5-40.8-18.5c-6.5-2.8-14.1-1-18.7,4.3c-19.9,22.6-47.1,37.5-76.9,42.2c-3.5,0.6-6.3,3.4-6.8,7
			c-3.1,19.7-4.4,38-5.1,50c-0.2,6.3,1.6,12.4,5.2,17.6c1.6,2.6,2.5,5.5,2.5,8.6c0,4.8-2.1,9.4-5.7,12.4c-6.2,5.2-15.3,5.1-21.4-0.3
			c-6-5.4-7.3-14.4-2.8-21.2c3.3-4.8,5.1-10.5,4.9-16.3c-0.5-9.4-2.9-32.1-4.3-44.7c-0.9-7.1-6.1-12.7-13.1-14
			c-27.6-5.6-52.7-20.1-71.3-41.2c-3.1-3.5-7.6-5.5-12.3-5.6c-2.2,0-4.4,0.5-6.4,1.3c-11.4,5-31.8,13.9-40.2,18.2
			c-5.4,3-9.8,7.6-12.6,13.2c-1.4,2.7-3.6,5-6.3,6.4c-7.3,4.3-16.6,2.4-21.6-4.5c-5-6.9-3.8-16.3,2.6-21.9c3.2-2.8,7.4-4.3,11.7-4.1
			c5.9,0.5,11.7-0.9,16.8-4c8.8-5.6,22.2-14.7,36.7-26.2c5.4-4.3,7.5-11.5,5.2-18.1c-9-26.8-9-55.8,0-82.8
			c2.3-6.6,0.2-13.8-5.2-18.1C13.2,292.7,0.9,284.1-11.9,275.7L-11.9,275.7z M-74.7,358.1c1-5.4,4.6-9.9,9.6-12.1
			c5.1-2.2,10.8-1.7,15.5,1.3c4.8,3.3,10.6,5.1,16.4,4.9c9.7-0.5,24.1-1.4,40.2-3.5c-0.3,4.1-0.5,8.1-0.5,12.3
			c0,4.2,0.2,8.2,0.5,12.3c-15.6-2-29.7-3.1-39.4-3.5c-6.3-0.2-12.5,1.6-17.8,5.2c-6.9,4-15.7,2.7-20.9-3.2
			C-74.2,367.8-75.5,362.9-74.7,358.1L-74.7,358.1z"/>
	</g>
</g>
</svg>
